<svg width="20" height="20" viewBox="0 0 20 20" fill="none" xmlns="http://www.w3.org/2000/svg">
<path fill-rule="evenodd" clip-rule="evenodd" d="M4.16675 9.58333C4.16675 9.12308 4.53983 8.75 5.00008 8.75H5.83341C6.29366 8.75 6.66675 9.12308 6.66675 9.58333V10.4167C6.66675 10.8769 6.29366 11.25 5.83341 11.25H5.00008C4.53983 11.25 4.16675 10.8769 4.16675 10.4167V9.58333ZM5.83341 9.58333V10.4167H5.00008V9.58333H5.83341Z" fill="#0B8AE1"/>
<path fill-rule="evenodd" clip-rule="evenodd" d="M8.33333 8.75C7.87308 8.75 7.5 9.12308 7.5 9.58333V10.4167C7.5 10.8769 7.87308 11.25 8.33333 11.25H9.16667C9.62692 11.25 10 10.8769 10 10.4167V9.58333C10 9.12308 9.62692 8.75 9.16667 8.75H8.33333ZM9.16667 9.58333H8.33333V10.4167H9.16667V9.58333Z" fill="#0B8AE1"/>
<path fill-rule="evenodd" clip-rule="evenodd" d="M10.8333 9.58333C10.8333 9.12308 11.2063 8.75 11.6666 8.75H12.4999C12.9602 8.75 13.3333 9.12308 13.3333 9.58333V10.4167C13.3333 10.8769 12.9602 11.25 12.4999 11.25H11.6666C11.2063 11.25 10.8333 10.8769 10.8333 10.4167V9.58333ZM11.6666 9.58333H12.4999V10.4167H11.6666V9.58333Z" fill="#0B8AE1"/>
<path fill-rule="evenodd" clip-rule="evenodd" d="M5.00008 12.084C4.53983 12.084 4.16675 12.4571 4.16675 12.9173V13.7507C4.16675 14.2109 4.53983 14.584 5.00008 14.584H5.83341C6.29366 14.584 6.66675 14.2109 6.66675 13.7507V12.9173C6.66675 12.4571 6.29366 12.084 5.83341 12.084H5.00008ZM5.00008 12.9173V13.7507H5.83341V12.9173H5.00008Z" fill="#0B8AE1"/>
<path fill-rule="evenodd" clip-rule="evenodd" d="M7.5 12.9173C7.5 12.4571 7.87308 12.084 8.33333 12.084H9.16667C9.62692 12.084 10 12.4571 10 12.9173V13.7507C10 14.2109 9.62692 14.584 9.16667 14.584H8.33333C7.87308 14.584 7.5 14.2109 7.5 13.7507V12.9173ZM8.33333 12.9173H9.16667V13.7507H8.33333V12.9173Z" fill="#0B8AE1"/>
<path d="M14.5834 13.125C14.8135 13.125 15.0001 13.3115 15.0001 13.5417V14.4108L15.2947 14.7054C15.4574 14.8681 15.4574 15.1319 15.2947 15.2946C15.132 15.4573 14.8682 15.4573 14.7055 15.2946L14.1667 14.7559V13.5417C14.1667 13.3115 14.3533 13.125 14.5834 13.125Z" fill="#0B8AE1"/>
<path fill-rule="evenodd" clip-rule="evenodd" d="M5 2.91667C5 2.68655 5.18654 2.5 5.41667 2.5C5.64679 2.5 5.83333 2.68655 5.83333 2.91667V5C5.83333 5.23012 5.64679 5.41667 5.41667 5.41667C5.18654 5.41667 5 5.23012 5 5V4.58333H3.75C3.51988 4.58333 3.33333 4.76988 3.33333 5V6.66667H14.1667V5C14.1667 4.76988 13.9801 4.58333 13.75 4.58333H12.5V3.75H13.75C14.4404 3.75 15 4.30967 15 5V11.6962C16.4135 11.8984 17.5 13.114 17.5 14.5833C17.5 16.1942 16.1942 17.5 14.5833 17.5C13.5922 17.5 12.7165 17.0056 12.1895 16.25H3.75C3.05965 16.25 2.5 15.6904 2.5 15V5C2.5 4.30962 3.05965 3.75 3.75 3.75H5V2.91667ZM11.6667 14.5833C11.6667 13.114 12.7532 11.8984 14.1667 11.6962V7.5H3.33333V15C3.33333 15.2301 3.51988 15.4167 3.75 15.4167H11.7875C11.7089 15.1526 11.6667 14.8729 11.6667 14.5833ZM14.5833 16.6667C15.7339 16.6667 16.6667 15.7339 16.6667 14.5833C16.6667 13.4327 15.7339 12.5 14.5833 12.5C13.4327 12.5 12.5 13.4327 12.5 14.5833C12.5 15.7339 13.4327 16.6667 14.5833 16.6667Z" fill="#0B8AE1"/>
<path d="M11.2501 5.41667C11.02 5.41667 10.8334 5.23013 10.8334 5V4.58333H6.66675V3.75H10.8334V2.91667C10.8334 2.68655 11.02 2.5 11.2501 2.5C11.4802 2.5 11.6667 2.68655 11.6667 2.91667V5C11.6667 5.23013 11.4802 5.41667 11.2501 5.41667Z" fill="#0B8AE1"/>
</svg>
