<svg width="9" height="7" viewBox="0 0 9 7" fill="none" xmlns="http://www.w3.org/2000/svg">
<path d="M5.625 0C5.67647 0.000266287 5.72721 0.0135533 5.77246 0.0380859C5.81761 0.0626135 5.85651 0.097711 5.88477 0.140625L6.41895 0.9375H8.4375C8.52038 0.9375 8.5996 0.970692 8.6582 1.0293C8.71681 1.0879 8.75 1.16712 8.75 1.25V6.5625C8.75 6.64538 8.71681 6.7246 8.6582 6.7832C8.5996 6.84181 8.52038 6.875 8.4375 6.875H0.3125C0.22962 6.875 0.150402 6.84181 0.0917969 6.7832C0.0331918 6.7246 0 6.64538 0 6.5625V1.25C0 1.16712 0.0331918 1.0879 0.0917969 1.0293C0.150402 0.970692 0.22962 0.9375 0.3125 0.9375H2.33105L2.86523 0.140625C2.89349 0.097711 2.93239 0.0626135 2.97754 0.0380859C3.02279 0.0135533 3.07353 0.000266287 3.125 0H5.625ZM2.75977 1.42188C2.73151 1.46479 2.69261 1.49989 2.64746 1.52441C2.60221 1.54895 2.55147 1.56223 2.5 1.5625H0.625V6.25H8.125V1.5625H6.25C6.19853 1.56223 6.14779 1.54895 6.10254 1.52441C6.05739 1.49989 6.01849 1.46479 5.99023 1.42188L5.45605 0.625H3.29395L2.75977 1.42188ZM4.00879 1.91113C4.3725 1.83879 4.75016 1.87566 5.09277 2.01758C5.43517 2.15944 5.72761 2.3999 5.93359 2.70801C6.13962 3.01635 6.25 3.37916 6.25 3.75C6.25 4.24728 6.0528 4.72454 5.70117 5.07617C5.34954 5.4278 4.87228 5.625 4.375 5.625C4.00416 5.625 3.64135 5.51462 3.33301 5.30859C3.0249 5.10261 2.78444 4.81017 2.64258 4.46777C2.50066 4.12516 2.46379 3.7475 2.53613 3.38379C2.60853 3.02024 2.78671 2.68595 3.04883 2.42383C3.31095 2.16171 3.64524 1.98353 4.00879 1.91113ZM4.375 2.5C4.12777 2.5 3.88623 2.57359 3.68066 2.71094C3.47512 2.84829 3.31433 3.04309 3.21973 3.27148C3.12512 3.49989 3.10118 3.75167 3.14941 3.99414C3.19769 4.23648 3.31648 4.45906 3.49121 4.63379C3.66594 4.80852 3.88852 4.92731 4.13086 4.97559C4.37333 5.02382 4.62511 4.99988 4.85352 4.90527C5.08191 4.81067 5.27671 4.64988 5.41406 4.44434C5.55141 4.23877 5.625 3.99723 5.625 3.75C5.625 3.41848 5.49321 3.10063 5.25879 2.86621C5.02437 2.63179 4.70652 2.5 4.375 2.5Z" fill="white"/>
</svg>
