<svg width="11" height="11" viewBox="0 0 11 11" fill="none" xmlns="http://www.w3.org/2000/svg">
<path d="M9.99986 0.999863C9.85922 0.85926 9.66849 0.780273 9.46961 0.780273C9.27074 0.780273 9.08001 0.85926 8.93937 0.999863L5.49986 4.43936L2.06036 0.999863C1.91972 0.85926 1.72899 0.780273 1.53011 0.780273C1.33124 0.780273 1.14051 0.85926 0.999863 0.999863C0.85926 1.14051 0.780273 1.33124 0.780273 1.53011C0.780273 1.72899 0.85926 1.91972 0.999863 2.06036L4.43936 5.49986L0.999863 8.93937C0.85926 9.08001 0.780273 9.27074 0.780273 9.46961C0.780273 9.66849 0.85926 9.85922 0.999863 9.99986C1.14051 10.1405 1.33124 10.2195 1.53011 10.2195C1.72899 10.2195 1.91972 10.1405 2.06036 9.99986L5.49986 6.56036L8.93937 9.99986C9.08001 10.1405 9.27074 10.2195 9.46961 10.2195C9.66849 10.2195 9.85922 10.1405 9.99986 9.99986C10.1405 9.85922 10.2195 9.66849 10.2195 9.46961C10.2195 9.27074 10.1405 9.08001 9.99986 8.93937L6.56036 5.49986L9.99986 2.06036C10.1405 1.91972 10.2195 1.72899 10.2195 1.53011C10.2195 1.33124 10.1405 1.14051 9.99986 0.999863V0.999863Z" fill="#000000"/>
</svg>
