<svg width="111" height="100" viewBox="0 0 111 100" fill="none" xmlns="http://www.w3.org/2000/svg">
<path d="M92.25 12.5H29.75C28.0924 12.5 26.5027 13.1585 25.3306 14.3306C24.1585 15.5027 23.5 17.0924 23.5 18.75V81.25C23.5 82.9076 24.1585 84.4973 25.3306 85.6694C26.5027 86.8415 28.0924 87.5 29.75 87.5H92.25C93.9076 87.5 95.4973 86.8415 96.6694 85.6694C97.8415 84.4973 98.5 82.9076 98.5 81.25V18.75C98.5 17.0924 97.8415 15.5027 96.6694 14.3306C95.4973 13.1585 93.9076 12.5 92.25 12.5ZM54.75 67.1875L39.125 51.6959L44.0963 46.875L54.75 57.33L77.9022 34.375L82.8766 39.3037L54.75 67.1875Z" fill="#39C316"/>
<path d="M0.408671 13.743C0.360258 13.7265 0.308529 13.7224 0.258112 13.7308C0.207694 13.7393 0.160161 13.7601 0.119762 13.7914C0.0793633 13.8228 0.0473593 13.8636 0.0266134 13.9103C0.0058675 13.9571 -0.00297397 14.0082 0.000880414 14.0592C0.00511168 14.1204 0.0273928 14.1791 0.0649126 14.2277C0.102432 14.2763 0.15351 14.3127 0.211701 14.3323C2.43454 15.084 15.9562 19.7729 16.9249 19.7729C17.6282 19.0689 17.4243 19.5497 0.408671 13.743Z" fill="#39C316"/>
<path d="M1.3283 5.88133C1.40525 5.92596 14.4084 12.923 14.8954 13.287C14.9808 13.3731 15.1716 13.4047 15.3571 13.2216C15.7418 12.833 15.5217 12.8861 6.04713 7.65099C1.45449 5.11192 1.50758 5.11192 1.19981 5.41968C1.16722 5.45494 1.14418 5.49796 1.13289 5.54463C1.1216 5.5913 1.12244 5.64008 1.13531 5.68634C1.14819 5.7326 1.17268 5.7748 1.20646 5.80893C1.24023 5.84306 1.28218 5.86798 1.3283 5.88133Z" fill="#39C316"/>
<path d="M21.0519 10.7973C20.518 10.2587 20.0517 9.72011 18.2336 7.78195C10.5517 -0.393857 10.9564 -0.211506 10.631 0.113957C10.5995 0.143596 10.5744 0.179363 10.5572 0.219059C10.5401 0.258755 10.5312 0.30154 10.5312 0.344782C10.5312 0.388024 10.5401 0.430809 10.5572 0.470505C10.5744 0.510201 10.5995 0.545968 10.631 0.575607C13.8294 3.77407 20.4356 11.3897 20.8557 11.3897C21.0112 11.3867 21.175 11.042 21.0519 10.7973Z" fill="#39C316"/>
</svg>
