<svg width="18" height="19" viewBox="0 0 18 19" fill="none" xmlns="http://www.w3.org/2000/svg">
<path d="M15.875 1.74023H13.125V0.365234H11.75V1.74023H6.25V0.365234H4.875V1.74023H2.125C1.36875 1.74023 0.75 2.35898 0.75 3.11523V16.8652C0.75 17.6215 1.36875 18.2402 2.125 18.2402H15.875C16.6313 18.2402 17.25 17.6215 17.25 16.8652V3.11523C17.25 2.35898 16.6313 1.74023 15.875 1.74023ZM15.875 16.8652H2.125V7.24023H15.875V16.8652ZM15.875 5.86523H2.125V3.11523H4.875V4.49023H6.25V3.11523H11.75V4.49023H13.125V3.11523H15.875V5.86523Z" fill="black"/>
</svg>
