<svg width="16" height="16" viewBox="0 0 16 16" fill="none" xmlns="http://www.w3.org/2000/svg">
<path d="M11.0133 3.7666L8.94667 2.1666C8.68 1.89993 8.08 1.7666 7.68 1.7666H5.14667C4.34667 1.7666 3.48 2.3666 3.28 3.1666L1.68 8.03327C1.34667 8.9666 1.94667 9.7666 2.94667 9.7666H5.61333C6.01333 9.7666 6.34667 10.0999 6.28 10.5666L5.94667 12.6999C5.81333 13.2999 6.21333 13.9666 6.81333 14.1666C7.34667 14.3666 8.01333 14.0999 8.28 13.6999L11.0133 9.63327" stroke="#BDC4CD" stroke-width="1.5" stroke-miterlimit="10"/>
<path d="M14.4133 3.76667V10.3C14.4133 11.2333 14.0133 11.5667 13.08 11.5667H12.4133C11.48 11.5667 11.08 11.2333 11.08 10.3V3.76667C11.08 2.83333 11.48 2.5 12.4133 2.5H13.08C14.0133 2.5 14.4133 2.83333 14.4133 3.76667Z" stroke="#BDC4CD" stroke-width="1.5" stroke-linecap="round" stroke-linejoin="round"/>
</svg>
