<svg width="18" height="20" viewBox="0 0 18 20" fill="none" xmlns="http://www.w3.org/2000/svg">
<path d="M8.75 10C5.97656 10 3.75 7.77344 3.75 5C3.75 2.26562 5.97656 0 8.75 0C11.4844 0 13.75 2.26562 13.75 5C13.75 7.77344 11.4844 10 8.75 10ZM4.0625 16.5625C4.0625 16.0547 4.45312 15.625 5 15.625C5.50781 15.625 5.9375 16.0547 5.9375 16.5625C5.9375 17.1094 5.50781 17.5 5 17.5C4.45312 17.5 4.0625 17.1094 4.0625 16.5625ZM12.5 11.2891C15.2734 11.4453 17.5 13.7109 17.5 16.5234V18.2812C17.5 19.2188 16.6797 20 15.7422 20H1.71875C0.78125 20 0 19.2188 0 18.2812V16.5234C0 13.9062 1.875 11.7578 4.375 11.3672V14.4922C3.47656 14.7656 2.8125 15.5859 2.8125 16.6016C2.8125 17.7734 3.78906 18.7891 5 18.7891C6.21094 18.7891 7.1875 17.7734 7.1875 16.6016C7.1875 15.5859 6.52344 14.7656 5.625 14.4922V11.3281C5.89844 11.3672 6.21094 11.4062 6.48438 11.5234C7.1875 11.7578 7.96875 11.9141 8.75 11.9141C9.53125 11.9141 10.2734 11.7578 10.9766 11.5234C11.0547 11.4844 11.1328 11.4844 11.25 11.4453V13.2031C9.80469 13.5156 8.75 14.7656 8.75 16.25V17.9688C8.75 18.2812 8.98438 18.5547 9.25781 18.5938L10.5078 18.75C10.6641 18.7891 10.8203 18.6719 10.8594 18.5156L10.9766 17.8906C11.0156 17.7344 10.8984 17.5781 10.7422 17.5391L10 17.3828V16.3281C10 13.7109 13.75 13.8281 13.75 16.25V17.3828L12.9688 17.5391C12.8125 17.5781 12.6953 17.7344 12.7344 17.8906L12.8516 18.5156C12.8906 18.6719 13.0469 18.7891 13.2031 18.75L14.4922 18.5156C14.7656 18.4375 15 18.2031 15 17.8906V16.25C15 14.7656 13.9062 13.4766 12.5 13.2031V11.2891Z" fill="#0B8AE1"/>
</svg>
