<svg width="100" height="100" viewBox="0 0 100 100" fill="none" xmlns="http://www.w3.org/2000/svg">
<path fill-rule="evenodd" clip-rule="evenodd" d="M15.5644 8.76219C15.4227 8.05377 15.04 7.41633 14.4813 6.95831C13.9226 6.50029 13.2224 6.24999 12.5 6.25H0V12.5H9.9375L21.9356 72.4878C22.0773 73.1962 22.46 73.8337 23.0187 74.2917C23.5774 74.7497 24.2776 75 25 75H81.25V68.75H27.5625L25.0625 56.25H81.25C81.961 56.25 82.6507 56.0076 83.2054 55.5627C83.76 55.1179 84.1463 54.4972 84.3006 53.8031L91.3891 21.875H84.9909L78.7444 50H23.8125L15.5644 8.76219ZM37.5 87.5C37.5 90.9518 34.7018 93.75 31.25 93.75C27.7982 93.75 25 90.9518 25 87.5C25 84.0482 27.7982 81.25 31.25 81.25C34.7018 81.25 37.5 84.0482 37.5 87.5ZM81.25 87.5C81.25 90.9518 78.4518 93.75 75 93.75C71.5482 93.75 68.75 90.9518 68.75 87.5C68.75 84.0482 71.5482 81.25 75 81.25C78.4518 81.25 81.25 84.0482 81.25 87.5ZM68.75 13.7812L57.5312 25L68.75 36.2188L64.3438 40.625L53.125 29.4062L41.9062 40.625L37.5 36.2188L48.7188 25L37.5 13.7812L41.9062 9.375L53.125 20.5938L64.3438 9.375L68.75 13.7812Z" fill="#8B96A5"/>
</svg>
