<svg width="20" height="20" viewBox="0 0 20 20" fill="none" xmlns="http://www.w3.org/2000/svg">
<path fill-rule="evenodd" clip-rule="evenodd" d="M4.65264 17.9931C6.23546 19.0507 8.09636 19.6152 10 19.6152C12.5518 19.6124 14.9983 18.5974 16.8027 16.793C18.6071 14.9886 19.6221 12.5421 19.625 9.99024C19.625 8.08659 19.0605 6.2257 18.0029 4.64287C16.9453 3.06005 15.4421 1.82639 13.6833 1.0979C11.9246 0.369405 9.98933 0.178798 8.12226 0.55018C6.25519 0.921563 4.54018 1.83826 3.1941 3.18434C1.84802 4.53042 0.931329 6.24543 0.559946 8.11249C0.188563 9.97956 0.37917 11.9148 1.10766 13.6736C1.83616 15.4323 3.06982 16.9355 4.65264 17.9931ZM5.41655 3.13061C6.77326 2.22409 8.36831 1.74024 10 1.74024C12.1873 1.74273 14.2842 2.61273 15.8309 4.15936C17.3775 5.706 18.2475 7.80297 18.25 9.99024C18.25 11.6219 17.7661 13.217 16.8596 14.5737C15.9531 15.9304 14.6646 16.9878 13.1571 17.6122C11.6497 18.2367 9.99085 18.4 8.39051 18.0817C6.79017 17.7634 5.32016 16.9777 4.16637 15.8239C3.01259 14.6701 2.22685 13.2001 1.90853 11.5997C1.5902 9.99939 1.75358 8.34059 2.378 6.8331C3.00242 5.32561 4.05984 4.03714 5.41655 3.13061ZM14.2829 5.19613C14.4072 5.22548 14.5208 5.28889 14.6111 5.37925C14.7013 5.46952 14.7647 5.58315 14.7941 5.70741C14.8234 5.83167 14.8176 5.96164 14.7772 6.08277L12.7147 12.2703C12.6809 12.3715 12.624 12.4634 12.5486 12.5389C12.4732 12.6143 12.3812 12.6712 12.28 12.705L6.09252 14.7675C5.97137 14.808 5.84136 14.8138 5.71706 14.7845C5.59276 14.7552 5.47909 14.6918 5.38878 14.6015C5.29847 14.5112 5.23511 14.3975 5.20578 14.2732C5.17646 14.1489 5.18234 14.0189 5.22276 13.8978L7.28526 7.71029C7.31906 7.60909 7.37593 7.51714 7.45138 7.4417C7.52682 7.36625 7.61877 7.30939 7.71997 7.27558L13.9075 5.21308C14.0286 5.17265 14.1586 5.16677 14.2829 5.19613ZM8.48096 8.47128L6.962 13.0283L11.5194 11.5096L8.48096 8.47128Z" fill="black"/>
</svg>
