<svg width="19" height="18" viewBox="0 0 19 18" fill="none" xmlns="http://www.w3.org/2000/svg">
<path d="M13.6016 0.296875C12.0156 0.296875 10.4935 1.03516 9.50002 2.20182C8.50653 1.03516 6.9844 0.296875 5.39846 0.296875C2.59117 0.296875 0.385437 2.5026 0.385437 5.3099C0.385437 8.75521 3.4844 11.5625 8.17841 15.8281L9.50002 17.0221L10.8216 15.819C15.5156 11.5625 18.6146 8.75521 18.6146 5.3099C18.6146 2.5026 16.4089 0.296875 13.6016 0.296875ZM9.59117 14.47L9.50002 14.5612L9.40887 14.47C5.07033 10.5417 2.20835 7.94401 2.20835 5.3099C2.20835 3.48698 3.57554 2.11979 5.39846 2.11979C6.8021 2.11979 8.16929 3.02214 8.65236 4.27083H10.3568C10.8307 3.02214 12.1979 2.11979 13.6016 2.11979C15.4245 2.11979 16.7917 3.48698 16.7917 5.3099C16.7917 7.94401 13.9297 10.5417 9.59117 14.47Z" fill="#0B8AE1"/>
</svg>
