<svg width="20" height="20" viewBox="0 0 20 20" fill="none" xmlns="http://www.w3.org/2000/svg">
<path fill-rule="evenodd" clip-rule="evenodd" d="M16.875 5.86523H18.25C18.6145 5.86565 18.964 6.01065 19.2218 6.26842C19.4796 6.5262 19.6246 6.87569 19.625 7.24023V19.6152H0.375V7.24023C0.375419 6.87569 0.520418 6.5262 0.77819 6.26842C1.03596 6.01065 1.38546 5.86565 1.75 5.86523H3.125V1.74023C3.12542 1.37569 3.27042 1.0262 3.52819 0.768425C3.78596 0.510653 4.13546 0.365653 4.5 0.365234H15.5C15.8645 0.365653 16.214 0.510653 16.4718 0.768425C16.7296 1.0262 16.8746 1.37569 16.875 1.74023V5.86523ZM8.625 14.1152V18.2402H11.375V14.1152H8.625ZM12.75 13.4277V18.2402H18.25V7.24023H15.5V1.74023H4.5V7.24023H1.75V18.2402H7.25V13.4277C7.25 13.2454 7.32243 13.0705 7.45136 12.9416C7.5803 12.8127 7.75516 12.7402 7.9375 12.7402H12.0625C12.2448 12.7402 12.4197 12.8127 12.5486 12.9416C12.6776 13.0705 12.75 13.2454 12.75 13.4277ZM10.6875 5.86523H13.4375V7.24023H10.6875V9.99023H9.3125V7.24023H6.5625V5.86523H9.3125V3.11523H10.6875V5.86523Z" fill="black"/>
</svg>
