<svg width="20" height="17" viewBox="0 0 20 17" fill="none" xmlns="http://www.w3.org/2000/svg">
<path d="M10.3827 0.88359C10.2717 0.797019 10.1351 0.75 9.99434 0.75C9.85362 0.75 9.71694 0.797019 9.606 0.88359L0.625 7.88709L1.40169 8.8694L2.5 8.01303V15.75C2.50068 16.0813 2.63259 16.3988 2.86686 16.6331C3.10114 16.8674 3.41869 16.9993 3.75 17H16.25C16.5813 16.9993 16.8989 16.8675 17.1332 16.6332C17.3675 16.3989 17.4994 16.0813 17.5 15.75V8.01871L18.5983 8.87496L19.375 7.89259L10.3827 0.88359ZM11.25 15.75H8.75V10.75H11.25V15.75ZM12.5 15.75V10.75C12.4996 10.4186 12.3678 10.1008 12.1335 9.8665C11.8991 9.63216 11.5814 9.50034 11.25 9.49996H8.75C8.41858 9.50029 8.10083 9.6321 7.86648 9.86644C7.63213 10.1008 7.50033 10.4185 7.5 10.75V15.75H3.75V7.0384L10 2.16965L16.25 7.04496V15.75H12.5Z" fill="#31B5ED"/>
</svg>
