<svg width="14" height="12" viewBox="0 0 14 12" fill="none" xmlns="http://www.w3.org/2000/svg">
<path fill-rule="evenodd" clip-rule="evenodd" d="M1.75 1.625H12.25V10.375H1.75V1.625ZM12.25 0.75H1.75C1.51794 0.75 1.29538 0.842187 1.13128 1.00628C0.967187 1.17038 0.875 1.39294 0.875 1.625V10.375C0.875 10.6071 0.967187 10.8296 1.13128 10.9937C1.29538 11.1578 1.51794 11.25 1.75 11.25H12.25C12.4821 11.25 12.7046 11.1578 12.8687 10.9937C13.0328 10.8296 13.125 10.6071 13.125 10.375V1.625C13.125 1.39294 13.0328 1.17038 12.8687 1.00628C12.7046 0.842187 12.4821 0.75 12.25 0.75ZM5.6875 3.375H2.625V4.25H5.6875V3.375ZM2.625 5.125H4.375V6H2.625V5.125ZM10.9906 7.25942C10.7444 7.01328 10.4106 6.875 10.0625 6.875H7.4375C7.0894 6.875 6.75556 7.01328 6.50942 7.25942C6.26328 7.50556 6.125 7.8394 6.125 8.1875V9.0625H7V8.1875C7 8.07147 7.04609 7.96019 7.12814 7.87814C7.21019 7.79609 7.32147 7.75 7.4375 7.75H10.0625C10.1785 7.75 10.2898 7.79609 10.3719 7.87814C10.4539 7.96019 10.5 8.07147 10.5 8.1875V9.0625H11.375V8.1875C11.375 7.8394 11.2367 7.50556 10.9906 7.25942ZM9.72225 6.14257C9.43446 6.33487 9.09612 6.4375 8.75 6.4375C8.28587 6.4375 7.84075 6.25313 7.51256 5.92494C7.18437 5.59675 7 5.15163 7 4.6875C7 4.34138 7.10264 4.00304 7.29493 3.71525C7.48722 3.42747 7.76053 3.20317 8.0803 3.07071C8.40007 2.93826 8.75194 2.9036 9.09141 2.97113C9.43087 3.03865 9.74269 3.20532 9.98744 3.45006C10.2322 3.69481 10.3989 4.00663 10.4664 4.34609C10.5339 4.68556 10.4992 5.03743 10.3668 5.3572C10.2343 5.67697 10.01 5.95028 9.72225 6.14257ZM9.23612 3.95996C9.09223 3.86382 8.92306 3.8125 8.75 3.8125C8.51794 3.8125 8.29538 3.90469 8.13128 4.06878C7.96719 4.23288 7.875 4.45544 7.875 4.6875C7.875 4.86056 7.92632 5.02973 8.02246 5.17362C8.11861 5.31752 8.25527 5.42967 8.41515 5.4959C8.57504 5.56212 8.75097 5.57945 8.9207 5.54569C9.09044 5.51193 9.24635 5.42859 9.36872 5.30622C9.49109 5.18385 9.57442 5.02794 9.60819 4.85821C9.64195 4.68847 9.62462 4.51254 9.55839 4.35265C9.49217 4.19277 9.38002 4.05611 9.23612 3.95996Z" fill="#0B8AE1"/>
</svg>
