<svg width="17" height="17" viewBox="0 0 17 17" fill="none" xmlns="http://www.w3.org/2000/svg">
<path fill-rule="evenodd" clip-rule="evenodd" d="M2.17901 0.5H14.821C15.7483 0.5 16.5 1.25172 16.5 2.17901V14.821C16.5 15.7483 15.7483 16.5 14.821 16.5H2.17901C1.25172 16.5 0.5 15.7483 0.5 14.821V2.17901C0.5 1.25172 1.25172 0.5 2.17901 0.5ZM2.17901 1.58642C1.85173 1.58642 1.58642 1.85173 1.58642 2.17901V11.7065L3.93935 9.35355C4.52513 8.76777 5.47488 8.76777 6.06067 9.35356L7.14645 10.4393C7.34172 10.6346 7.6583 10.6346 7.85356 10.4393L11.4393 6.85355C12.0251 6.26777 12.9749 6.26777 13.5607 6.85356L15.4136 8.70647V2.17901C15.4136 1.85173 15.1483 1.58642 14.821 1.58642H2.17901ZM1.58642 14.821V13.1207L4.64645 10.0607C4.84172 9.8654 5.1583 9.8654 5.35356 10.0607L6.43935 11.1464C7.02513 11.7322 7.97488 11.7322 8.56067 11.1464L12.1465 7.56066C12.3417 7.3654 12.6583 7.3654 12.8536 7.56066L15.4136 10.1207V14.821C15.4136 15.1483 15.1483 15.4136 14.821 15.4136H2.17901C1.85173 15.4136 1.58642 15.1483 1.58642 14.821ZM6.5 5.5C6.5 6.05228 6.05228 6.5 5.5 6.5C4.94772 6.5 4.5 6.05228 4.5 5.5C4.5 4.94772 4.94772 4.5 5.5 4.5C6.05228 4.5 6.5 4.94772 6.5 5.5ZM7.5 5.5C7.5 6.60457 6.60457 7.5 5.5 7.5C4.39543 7.5 3.5 6.60457 3.5 5.5C3.5 4.39543 4.39543 3.5 5.5 3.5C6.60457 3.5 7.5 4.39543 7.5 5.5Z" fill="#0B8AE1"/>
</svg>
