<svg width="16" height="16" viewBox="0 0 16 16" fill="none" xmlns="http://www.w3.org/2000/svg">
<path d="M4.98666 12.2336L7.05333 13.8336C7.32 14.1003 7.92 14.2336 8.32 14.2336H10.8533C11.6533 14.2336 12.52 13.6336 12.72 12.8336L14.32 7.96697C14.6533 7.03364 14.0533 6.23364 13.0533 6.23364H10.3867C9.98666 6.23364 9.65333 5.9003 9.72 5.43364L10.0533 3.3003C10.1867 2.7003 9.78666 2.03364 9.18666 1.83364C8.65333 1.63364 7.98666 1.9003 7.72 2.3003L4.98666 6.36697" stroke="#BDC4CD" stroke-width="1.5" stroke-miterlimit="10"/>
<path d="M1.58667 12.2336V5.70026C1.58667 4.76693 1.98667 4.43359 2.92 4.43359H3.58667C4.52 4.43359 4.92 4.76693 4.92 5.70026V12.2336C4.92 13.1669 4.52 13.5003 3.58667 13.5003H2.92C1.98667 13.5003 1.58667 13.1669 1.58667 12.2336Z" stroke="#BDC4CD" stroke-width="1.5" stroke-linecap="round" stroke-linejoin="round"/>
</svg>
