<svg width="14" height="13" viewBox="0 0 14 13" fill="none" xmlns="http://www.w3.org/2000/svg">
<path fill-rule="evenodd" clip-rule="evenodd" d="M7 12.5L7.87 13L9.58 10H12C12.5304 10 13.0391 9.78929 13.4142 9.41421C13.7893 9.03914 14 8.53043 14 8V2C14 1.46957 13.7893 0.960859 13.4142 0.585786C13.0391 0.210714 12.5304 0 12 0H2C1.46957 0 0.960859 0.210714 0.585786 0.585786C0.210714 0.960859 0 1.46957 0 2V8C0 8.53043 0.210714 9.03914 0.585786 9.41421C0.960859 9.78929 1.46957 10 2 10H6.5V9H2C1.73478 9 1.48043 8.89464 1.29289 8.70711C1.10536 8.51957 1 8.26522 1 8V2C1 1.73478 1.10536 1.48043 1.29289 1.29289C1.48043 1.10536 1.73478 1 2 1H12C12.2652 1 12.5196 1.10536 12.7071 1.29289C12.8946 1.48043 13 1.73478 13 2V8C13 8.26522 12.8946 8.51957 12.7071 8.70711C12.5196 8.89464 12.2652 9 12 9H9L7 12.5ZM6.5 2.5H7.5V4.5H9.5V5.5H7.5V7.5H6.5V5.5H4.5V4.5H6.5V2.5Z" fill="#8B96A5"/>
</svg>
