<svg width="14" height="16" viewBox="0 0 14 16" fill="none" xmlns="http://www.w3.org/2000/svg">
<path d="M12 8.54295V7.25H11V8.75C11 8.8826 11.0527 9.00975 11.1465 9.1035L12.5 10.4571V11.25H1.5V10.4571L2.8535 9.1035C2.94727 9.00975 2.99997 8.8826 3 8.75V6.75C2.99871 6.04744 3.18283 5.35698 3.53375 4.74834C3.88468 4.1397 4.38999 3.63444 4.99866 3.28357C5.60733 2.93269 6.2978 2.74864 7.00036 2.74999C7.70292 2.75134 8.39268 2.93804 9 3.29125V2.17335C8.52404 1.96263 8.01782 1.82833 7.5 1.7754V0.75H6.5V1.7754C5.26734 1.90082 4.12496 2.47884 3.29377 3.3977C2.46257 4.31655 2.0016 5.51098 2 6.75V8.54295L0.6465 9.8965C0.552725 9.99025 0.500028 10.1174 0.5 10.25V11.75C0.5 11.8826 0.552678 12.0098 0.646447 12.1036C0.740215 12.1973 0.867392 12.25 1 12.25H4.5V12.75C4.5 13.413 4.76339 14.0489 5.23223 14.5178C5.70107 14.9866 6.33696 15.25 7 15.25C7.66304 15.25 8.29893 14.9866 8.76777 14.5178C9.23661 14.0489 9.5 13.413 9.5 12.75V12.25H13C13.1326 12.25 13.2598 12.1973 13.3536 12.1036C13.4473 12.0098 13.5 11.8826 13.5 11.75V10.25C13.5 10.1174 13.4473 9.99025 13.3535 9.8965L12 8.54295ZM8.5 12.75C8.5 13.1478 8.34196 13.5294 8.06066 13.8107C7.77936 14.092 7.39782 14.25 7 14.25C6.60218 14.25 6.22064 14.092 5.93934 13.8107C5.65804 13.5294 5.5 13.1478 5.5 12.75V12.25H8.5V12.75Z" fill="black"/>
<path d="M11.5 6.75C12.6046 6.75 13.5 5.85457 13.5 4.75C13.5 3.64543 12.6046 2.75 11.5 2.75C10.3954 2.75 9.5 3.64543 9.5 4.75C9.5 5.85457 10.3954 6.75 11.5 6.75Z" fill="#FF5252"/>
</svg>
