<svg width="17" height="17" viewBox="0 0 17 17" fill="none" xmlns="http://www.w3.org/2000/svg">
<g clip-path="url(#clip0_227_4490)">
<path fill-rule="evenodd" clip-rule="evenodd" d="M14.0236 3.28143L12.0314 1.25301C11.5613 0.774385 10.9002 0.5 10.2169 0.5H3.83173C2.98184 0.5 2.29057 1.16727 2.29057 1.98765V4.97531H2.04117C1.19128 4.97531 0.5 5.64258 0.5 6.46296V12.0185C0.5 12.8389 1.19128 13.5062 2.04117 13.5062H2.29057V15.0123C2.29057 15.8327 2.98184 16.5 3.83173 16.5H13.1683C14.0182 16.5 14.7094 15.8327 14.7094 15.0123V13.5062H14.9588C15.8087 13.5062 16.5 12.8389 16.5 12.0185V6.46296C16.5 5.64258 15.8087 4.97531 14.9588 4.97531H14.7094V4.94201C14.7094 4.3216 14.4658 3.73169 14.0236 3.28143ZM3.45444 1.98765C3.45444 1.78692 3.62378 1.62346 3.83173 1.62346H10.2169C10.5819 1.62346 10.9356 1.77025 11.1868 2.02597L13.179 4.0544C13.4155 4.29519 13.5456 4.61022 13.5456 4.94201V4.97531H3.45444V1.98765ZM15.3361 12.0185C15.3361 12.2192 15.1668 12.3827 14.9588 12.3827H2.04117C1.83322 12.3827 1.66387 12.2192 1.66387 12.0185V6.46296C1.66387 6.26223 1.83322 6.09876 2.04117 6.09876H14.9588C15.1668 6.09876 15.3361 6.26223 15.3361 6.46296V12.0185ZM13.5456 15.0123C13.5456 15.2131 13.3762 15.3765 13.1683 15.3765H3.83173C3.62378 15.3765 3.45444 15.2131 3.45444 15.0123V13.5062H13.5456V15.0123Z" fill="#0B8AE1"/>
<path d="M4.84366 7.33203H3.93121C3.81662 7.33203 3.70672 7.37577 3.6258 7.45356C3.54488 7.53135 3.49963 7.63684 3.5 7.74672L3.50636 10.8868C3.50636 11.115 3.69942 11.3001 3.93756 11.3001C4.1757 11.3001 4.36876 11.115 4.36876 10.8868V9.93335C4.54507 9.9325 4.73342 9.93175 4.84366 9.93175C5.60131 9.93175 6.21773 9.34863 6.21773 8.63189C6.21773 7.91515 5.60131 7.33203 4.84366 7.33203ZM4.84366 9.10503C4.73244 9.10503 4.5434 9.10577 4.36641 9.10665C4.36549 8.93067 4.36468 8.74116 4.36468 8.63189C4.36468 8.53839 4.36419 8.3427 4.36367 8.15876H4.84363C5.12098 8.15876 5.3553 8.37541 5.3553 8.63189C5.3553 8.88837 5.12101 9.10503 4.84366 9.10503Z" fill="#0B8AE1"/>
<path d="M8.51141 7.33203H7.61077C7.49627 7.33203 7.38646 7.37568 7.30556 7.45337C7.22467 7.53105 7.17934 7.6364 7.17957 7.74617C7.17957 7.74619 7.18598 10.7843 7.18601 10.7953C7.18644 10.9049 7.23226 11.0099 7.31344 11.0872C7.39425 11.1641 7.50343 11.2072 7.61721 11.2072H7.61885C7.64607 11.2071 8.28848 11.2047 8.5453 11.2004C9.51965 11.1841 10.2268 10.3721 10.2268 9.2696C10.2268 8.1107 9.53744 7.33203 8.51141 7.33203ZM8.53024 10.3738C8.41856 10.3757 8.22641 10.3772 8.04698 10.3783C8.04577 10.0193 8.04341 8.53189 8.04275 8.15876H8.51141C9.3029 8.15876 9.36439 9.00902 9.36439 9.26963C9.36439 9.81229 9.10647 10.3642 8.53024 10.3738Z" fill="#0B8AE1"/>
<path d="M13.0688 8.12653C13.307 8.12653 13.5 7.94145 13.5 7.71317C13.5 7.48488 13.307 7.2998 13.0688 7.2998H11.7504C11.5123 7.2998 11.3192 7.48488 11.3192 7.71317V10.8315C11.3192 11.0598 11.5123 11.2449 11.7504 11.2449C11.9886 11.2449 12.1816 11.0598 12.1816 10.8315V9.65619H12.9641C13.2023 9.65619 13.3953 9.47112 13.3953 9.24283C13.3953 9.01454 13.2023 8.82947 12.9641 8.82947H12.1816V8.12653H13.0688Z" fill="#0B8AE1"/>
</g>
<defs>
<clipPath id="clip0_227_4490">
<rect width="16" height="16" fill="white" transform="translate(0.5 0.5)"/>
</clipPath>
</defs>
</svg>
