<svg width="14" height="20" viewBox="0 0 14 20" fill="none" xmlns="http://www.w3.org/2000/svg">
<path fill-rule="evenodd" clip-rule="evenodd" d="M8.90977 2.31956C8.34448 1.94184 7.67987 1.74023 7 1.74023C6.08832 1.74023 5.21398 2.1024 4.56932 2.74705C3.92467 3.39171 3.5625 4.26605 3.5625 5.17773C3.5625 5.85761 3.76411 6.52221 4.14183 7.08751C4.51954 7.6528 5.05641 8.09339 5.68453 8.35357C6.31265 8.61375 7.00382 8.68182 7.67062 8.54918C8.33743 8.41655 8.94994 8.08916 9.43068 7.60841C9.91142 7.12767 10.2388 6.51517 10.3715 5.84836C10.5041 5.18155 10.436 4.49038 10.1758 3.86226C9.91566 3.23414 9.47507 2.69727 8.90977 2.31956ZM4.32632 1.17629C5.11773 0.647483 6.04818 0.365234 7 0.365234C8.27636 0.365234 9.50043 0.872264 10.403 1.77478C11.3055 2.6773 11.8125 3.90138 11.8125 5.17773C11.8125 6.12956 11.5303 7.06 11.0014 7.85142C10.4726 8.64283 9.72103 9.25966 8.84167 9.6239C7.9623 9.98815 6.99466 10.0835 6.06113 9.89776C5.1276 9.71207 4.27009 9.25373 3.59705 8.58068C2.92401 7.90764 2.46566 7.05014 2.27997 6.11661C2.09428 5.18307 2.18959 4.21544 2.55383 3.33607C2.91808 2.4567 3.53491 1.70509 4.32632 1.17629ZM12.5 19.6152H13.875V16.1777C13.875 14.9014 13.368 13.6773 12.4655 12.7748C11.5629 11.8723 10.3389 11.3652 9.0625 11.3652H4.9375C3.66115 11.3652 2.43707 11.8723 1.53455 12.7748C0.63203 13.6773 0.125 14.9014 0.125 16.1777V19.6152H1.5V16.1777C1.5 15.2661 1.86216 14.3917 2.50682 13.7471C3.15148 13.1024 4.02582 12.7402 4.9375 12.7402H9.0625C9.51392 12.7402 9.96092 12.8291 10.378 13.0019C10.795 13.1746 11.174 13.4279 11.4932 13.7471C11.8124 14.0663 12.0656 14.4452 12.2383 14.8623C12.4111 15.2793 12.5 15.7263 12.5 16.1777V19.6152Z" fill="black"/>
</svg>
