<svg width="13" height="13" viewBox="0 0 13 13" fill="none" xmlns="http://www.w3.org/2000/svg">
<path d="M6.32222 0C7.998 0.0253906 9.52144 0.685547 10.664 1.75195L11.5781 0.837891C11.9589 0.457031 12.6191 0.736328 12.6191 1.26953V4.67188C12.6191 5.02734 12.3398 5.28125 12.0097 5.28125H8.58198C8.04878 5.28125 7.76948 4.64648 8.15034 4.26562L9.21675 3.19922C8.42964 2.46289 7.41401 2.05664 6.34761 2.05664C4.01167 2.03125 2.0312 3.91016 2.05659 6.34766C2.05659 8.6582 3.9355 10.5625 6.32222 10.5625C7.36323 10.5625 8.32808 10.207 9.11519 9.52148C9.24214 9.41992 9.41987 9.41992 9.52144 9.52148L10.5371 10.5371C10.664 10.6641 10.664 10.8672 10.5371 10.9941C9.41987 11.9844 7.92183 12.5938 6.32222 12.5938C2.8437 12.5938 0.025342 9.77539 0.025342 6.32227C-4.86374e-05 2.84375 2.8437 0 6.32222 0Z" fill="white"/>
</svg>
