<svg width="24" height="25" viewBox="0 0 24 25" fill="none" xmlns="http://www.w3.org/2000/svg">
<path d="M7.5 23C8.32843 23 9 22.3284 9 21.5C9 20.6716 8.32843 20 7.5 20C6.67157 20 6 20.6716 6 21.5C6 22.3284 6.67157 23 7.5 23Z" fill="#0B8AE1"/>
<path d="M18 23C18.8284 23 19.5 22.3284 19.5 21.5C19.5 20.6716 18.8284 20 18 20C17.1716 20 16.5 20.6716 16.5 21.5C16.5 22.3284 17.1716 23 18 23Z" fill="#0B8AE1"/>
<path d="M21 5.75015H4.365L3.75 2.60015C3.71494 2.4282 3.62068 2.27398 3.48364 2.16435C3.3466 2.05472 3.17546 1.99661 3 2.00015H0V3.50015H2.385L5.25 17.9002C5.28506 18.0721 5.37932 18.2263 5.51636 18.336C5.6534 18.4456 5.82454 18.5037 6 18.5002H19.5V17.0002H6.615L6 14.0002H19.5C19.6734 14.0044 19.8429 13.9484 19.9796 13.8418C20.1163 13.7351 20.2119 13.5843 20.25 13.4152L21.75 6.66515C21.7751 6.55387 21.7745 6.43832 21.7483 6.3273C21.722 6.21628 21.6708 6.11271 21.5985 6.02448C21.5261 5.93625 21.4347 5.86568 21.3309 5.81814C21.2272 5.7706 21.114 5.74735 21 5.75015ZM18.9 12.5002H5.715L4.665 7.25015H20.0625L18.9 12.5002Z" fill="#0B8AE1"/>
</svg>
