<svg width="20" height="16" viewBox="0 0 20 16" fill="none" xmlns="http://www.w3.org/2000/svg">
<path d="M18.3333 5.90846H14.3416L10.6916 0.441797C10.5333 0.208464 10.2666 0.0917969 9.99998 0.0917969C9.73331 0.0917969 9.46665 0.208464 9.30831 0.45013L5.65831 5.90846H1.66665C1.20831 5.90846 0.833313 6.28346 0.833313 6.7418C0.833313 6.8168 0.841646 6.8918 0.866646 6.9668L2.98331 14.6918C3.17498 15.3918 3.81665 15.9085 4.58331 15.9085H15.4166C16.1833 15.9085 16.825 15.3918 17.025 14.6918L19.1416 6.9668L19.1666 6.7418C19.1666 6.28346 18.7916 5.90846 18.3333 5.90846ZM9.99998 2.40846L12.3333 5.90846H7.66665L9.99998 2.40846ZM15.4166 14.2418L4.59165 14.2501L2.75831 7.57513H17.25L15.4166 14.2418ZM9.99998 9.2418C9.08331 9.2418 8.33331 9.9918 8.33331 10.9085C8.33331 11.8251 9.08331 12.5751 9.99998 12.5751C10.9166 12.5751 11.6666 11.8251 11.6666 10.9085C11.6666 9.9918 10.9166 9.2418 9.99998 9.2418Z" fill="#BDC4CD"/>
</svg>
