<svg width="20" height="20" viewBox="0 0 20 20" fill="none" xmlns="http://www.w3.org/2000/svg">
<path fill-rule="evenodd" clip-rule="evenodd" d="M2.84092 5.56776C2.65264 5.75606 2.65264 6.06131 2.84092 6.2496C3.0292 6.43789 3.33445 6.43789 3.52273 6.2496L3.86386 5.90847L5.56819 7.61281L4.20456 8.97647C4.01627 9.16476 4.01627 9.47001 4.20456 9.65831C4.39281 9.8466 4.69806 9.8466 4.88635 9.65831L5.56802 8.9766L11.3636 14.7723C12.0626 15.4713 13.084 15.6513 13.949 15.3124L14.4317 15.7951C14.6842 16.0476 15.0418 16.1308 15.3635 16.0448L16.4773 17.1586C16.6656 17.3469 16.9708 17.3469 17.1591 17.1586C17.3474 16.9703 17.3474 16.6651 17.1591 16.4768L16.0451 15.3628C16.1309 15.0411 16.0477 14.6838 15.7954 14.4315L15.3127 13.9488C15.6517 13.0837 15.4717 12.0622 14.7727 11.3632L8.9771 5.56743L9.65906 4.88547C9.84735 4.69718 9.84735 4.39193 9.65906 4.20364C9.47081 4.01536 9.16552 4.01536 8.97727 4.20364L7.6136 5.56731L5.90931 3.86296L6.24998 3.52226C6.43827 3.33398 6.43827 3.02871 6.24998 2.84043C6.06173 2.65215 5.75648 2.65215 5.56819 2.84043L2.84092 5.56776ZM7.02435 6.1566L5.32006 4.45222L4.4531 5.31918L6.15744 7.02356L7.02435 6.1566ZM8.38785 6.15672L6.15727 8.38735L7.9931 10.2232L10.2237 7.99256L8.38785 6.15672ZM8.6749 10.9051L9.69765 11.9278L10.4721 11.1533C10.6604 10.9651 10.9656 10.9651 11.1539 11.1533C11.3422 11.3416 11.3422 11.6469 11.1539 11.8352L10.3795 12.6096L11.0611 13.2913L11.8356 12.5168C12.0239 12.3285 12.3292 12.3285 12.5175 12.5168C12.7057 12.7051 12.7057 13.0103 12.5175 13.1986L11.7429 13.9731L11.9529 14.1831C12.4104 14.6406 13.0791 14.7583 13.6453 14.5361L14.5365 13.6449C14.7587 13.0787 14.641 12.41 14.1835 11.9525L10.9055 8.67439L8.6749 10.9051ZM15.2177 15.034C15.2142 15.0293 15.2103 15.0249 15.2061 15.0208L14.8628 14.6773C14.8338 14.7096 14.8038 14.7413 14.7727 14.7723C14.7416 14.8034 14.7099 14.8335 14.6776 14.8625L15.021 15.2059C15.0252 15.2101 15.0297 15.214 15.0343 15.2175C15.0554 15.1801 15.0818 15.1449 15.1136 15.1131C15.1454 15.0814 15.1804 15.055 15.2177 15.034Z" fill="#0B8AE1"/>
</svg>
